<?xml version="1.0" encoding="UTF-8" standalone="no" ?>
<!DOCTYPE svg PUBLIC "-//W3C//DTD SVG 1.1//EN" "http://www.w3.org/Graphics/SVG/1.1/DTD/svg11.dtd">
<svg xmlns="http://www.w3.org/2000/svg" xmlns:xlink="http://www.w3.org/1999/xlink" version="1.1" width="1280" height="1024" viewBox="0 0 1280 1024" xml:space="preserve">
<desc>Created with Fabric.js 3.6.3</desc>
<defs>
</defs>
<g transform="matrix(1.9692780337941629 0 0 1.9692780337941629 640.0153846153846 512.012312418764)" id="background-logo"  >
<rect style="stroke: none; stroke-width: 1; stroke-dasharray: none; stroke-linecap: butt; stroke-dashoffset: 0; stroke-linejoin: miter; stroke-miterlimit: 10; fill: rgb(255,255,255); fill-rule: nonzero; opacity: 1;"  paint-order="stroke"  x="-325" y="-260" rx="0" ry="0" width="650" height="520" />
</g>
<g transform="matrix(1.9692780337941629 0 0 1.9692780337941629 640.0196732106227 403.8418156691481)" id="logo-logo"  >
<g style=""  paint-order="stroke"   >
		<g transform="matrix(0.2273 0 0 -0.2273 55.20862224999996 64.75631200000001)"  >
<path style="stroke: none; stroke-width: 1; stroke-dasharray: none; stroke-linecap: butt; stroke-dashoffset: 0; stroke-linejoin: miter; stroke-miterlimit: 10; fill: rgb(230,162,35); fill-rule: nonzero; opacity: 1;"  paint-order="stroke"  transform=" translate(-5369.700000000001, -1203.4935)" d="m 5527.35 1129.75 l -84.41 84.42 l -82.44 82.44 l -85.8 85.8 l -105.97 105.96 h -167.82 l 189.97 -189.79 l 85.8 -85.8 l 82.23 -82.44 l 84.42 -84.41 l 127.43 -127.313 h 167.73 l -211.14 211.133" stroke-linecap="round" />
</g>
		<g transform="matrix(0.2273 0 0 -0.2273 28.70972225000014 105.42901199999997)"  >
<linearGradient id="SVGID_1_1128373" gradientUnits="userSpaceOnUse" gradientTransform="matrix(210.874 118.616 109.989 -195.537 5165.58 1111.62)"  x1="0" y1="1.1368683772161603e-13" x2="1" y2="1.1368683772161603e-13">
<stop offset="0%" style="stop-color:rgb(113,87,177);stop-opacity: 1"/>
<stop offset="26.303687999999998%" style="stop-color:rgb(113,87,177);stop-opacity: 1"/>
<stop offset="100%" style="stop-color:rgb(77,52,150);stop-opacity: 1"/>
</linearGradient>
<path style="stroke: none; stroke-width: 1; stroke-dasharray: none; stroke-linecap: butt; stroke-dashoffset: 0; stroke-linejoin: miter; stroke-miterlimit: 10; fill: url(#SVGID_1_1128373); fill-rule: nonzero; opacity: 1;"  paint-order="stroke"  transform=" translate(-5253.13, -1024.5725000000002)" d="m 5377.7 999.867 c 23.13 13.643 44.87 29.063 65.63 46.063 l -84.42 84.41 c -21.34 -16.41 -44.28 -31.03 -68.39 -43.29 c -61.68 -31.83 -131.67 -49.82 -205.61 -49.82 c -3.46 0 -6.87 0.18 -10.32 0.26 l -11.66 -61.08 l 27.42 -57.605 c 105.08 0.988 203.2 30.343 287.35 81.062" stroke-linecap="round" />
</g>
		<g transform="matrix(0.2273 0 0 -0.2273 -9.529277749999892 -0.0030880000000195196)"  >
<path style="stroke: none; stroke-width: 1; stroke-dasharray: none; stroke-linecap: butt; stroke-dashoffset: 0; stroke-linejoin: miter; stroke-miterlimit: 10; fill: rgb(113,87,177); fill-rule: nonzero; opacity: 1;"  paint-order="stroke"  transform=" translate(-5084.915000000001, -1488.3735000000001)" d="m 5084.91 2058.13 c -314.13 0 -569.75 -255.63 -569.75 -569.76 c 0 -314.14 255.62 -569.753 569.75 -569.753 c 1.83 0 3.61 0.172 5.44 0.188 l -15.76 118.685 c -243.94 5.53 -440.82 205.45 -440.82 450.88 c 0 248.7 202.44 451.14 451.14 451.14 c 248.7 0 451.14 -202.44 451.14 -451.14 c 0 -74.14 -17.99 -144.12 -49.82 -205.8 l 87.18 -86.98 c 51.6 85.59 81.26 185.82 81.26 292.78 c 0 314.13 -255.62 569.76 -569.76 569.76" stroke-linecap="round" />
</g>
		<g transform="matrix(0.2273 0 0 -0.2273 -1.6468777499999305 59.76861199999993)"  >
<linearGradient id="SVGID_2_1128374" gradientUnits="userSpaceOnUse" gradientTransform="matrix(201.787 69.4677 74.8089 -217.302 5022.99 1332.48)"  x1="0" y1="0" x2="1" y2="0">
<stop offset="0%" style="stop-color:rgb(70,184,203);stop-opacity: 1"/>
<stop offset="26.303687999999998%" style="stop-color:rgb(70,184,203);stop-opacity: 1"/>
<stop offset="100%" style="stop-color:rgb(38,98,111);stop-opacity: 1"/>
</linearGradient>
<path style="stroke: none; stroke-width: 1; stroke-dasharray: none; stroke-linecap: butt; stroke-dashoffset: 0; stroke-linejoin: miter; stroke-miterlimit: 10; fill: url(#SVGID_2_1128374); fill-rule: nonzero; opacity: 1;"  paint-order="stroke"  transform=" translate(-5119.589999999998, -1225.435)" d="m 5084.91 1152.29 c 41.72 0 81.65 7.71 118.62 21.75 c 26.1 9.88 50.61 22.93 73.15 38.74 l -85.8 85.8 c -25.7 -14.43 -54.57 -23.72 -85.21 -26.68 c -6.72 -0.6 -13.64 -0.99 -20.76 -0.99 c -37.34 0 -72.52 9.5 -103.27 26.18 l -19.14 -72.45 l 20.68 -56.5 c 32.12 -10.24 66.27 -15.85 101.73 -15.85" stroke-linecap="round" />
</g>
		<g transform="matrix(0.2273 0 0 -0.2273 -9.553077750000057 -1.7810880000000395)"  >
<path style="stroke: none; stroke-width: 1; stroke-dasharray: none; stroke-linecap: butt; stroke-dashoffset: 0; stroke-linejoin: miter; stroke-miterlimit: 10; fill: rgb(69,184,203); fill-rule: nonzero; opacity: 1;"  paint-order="stroke"  transform=" translate(-5084.8099999999995, -1496.195)" d="m 5399.25 1369.75 c 13.83 36.97 21.54 76.91 21.54 118.62 c 0 185.24 -150.64 335.88 -335.88 335.88 c -185.24 0 -336.08 -150.64 -336.08 -335.88 c 0 -149.78 98.67 -276.99 234.35 -320.23 l -1.54 128.95 c -67.91 36.86 -114.19 108.82 -114.19 191.28 c 0 119.8 97.66 217.27 217.46 217.27 c 119.8 0 217.27 -97.47 217.27 -217.27 c 0 -6.92 -0.4 -13.84 -0.99 -20.56 l 98.06 -98.06" stroke-linecap="round" />
</g>
</g>
</g>
<g transform="matrix(1.9692780337941629 0 0 1.9692780337941629 639.6697763204537 781.9298361308252)" id="text-logo-path"  >
<path style="stroke: none; stroke-width: 1; stroke-dasharray: none; stroke-linecap: butt; stroke-dashoffset: 0; stroke-linejoin: miter; stroke-miterlimit: 10; fill: rgb(104,80,170); fill-rule: nonzero; opacity: 1;"  paint-order="stroke"  transform=" translate(-197.605, 27.759999999999998)" d="M 3.88 -11.24 L 3.88 -11.24 L 3.88 -51.15 Q 3.88 -56.67 6.74 -59.53 Q 9.6 -62.38 15.12 -62.38 L 15.12 -62.38 L 23.88 -62.38 Q 29.4 -62.38 32.26 -59.53 Q 35.12 -56.67 35.12 -51.15 L 35.12 -51.15 L 35.12 -11.24 Q 35.12 -3.88 30.01 -1.26 L 30.01 -1.26 L 33.13 5.45 Q 33.4 6.09 33.08 6.47 Q 32.75 6.86 32.07 6.86 L 32.07 6.86 L 23.96 6.86 Q 23.16 6.86 22.62 5.79 L 22.62 5.79 L 19.96 0 L 15.12 0 Q 9.6 0 6.74 -2.86 Q 3.88 -5.71 3.88 -11.24 Z M 14.51 -48.98 L 14.51 -13.41 Q 14.51 -10.28 17.63 -10.28 L 17.63 -10.28 L 21.67 -10.28 Q 24.79 -10.28 24.79 -13.41 L 24.79 -13.41 L 24.79 -48.98 Q 24.79 -52.1 21.67 -52.1 L 21.67 -52.1 L 17.63 -52.1 Q 14.51 -52.1 14.51 -48.98 L 14.51 -48.98 Z M 42.88 -11.24 L 42.88 -11.24 L 42.88 -53.05 Q 42.88 -53.7 43.34 -54.16 Q 43.8 -54.62 44.45 -54.62 L 44.45 -54.62 L 51.95 -54.62 Q 52.6 -54.62 53.05 -54.16 Q 53.51 -53.7 53.51 -53.05 L 53.51 -53.05 L 53.51 -13.41 Q 53.51 -10.28 56.63 -10.28 L 56.63 -10.28 L 60.67 -10.28 Q 63.79 -10.28 63.79 -13.41 L 63.79 -13.41 L 63.79 -53.05 Q 63.79 -53.7 64.25 -54.16 Q 64.71 -54.62 65.36 -54.62 L 65.36 -54.62 L 72.55 -54.62 Q 73.2 -54.62 73.66 -54.16 Q 74.12 -53.7 74.12 -53.05 L 74.12 -53.05 L 74.12 -11.24 Q 74.12 -5.71 71.26 -2.86 Q 68.4 0 62.88 0 L 62.88 0 L 54.12 0 Q 48.6 0 45.74 -2.86 Q 42.88 -5.71 42.88 -11.24 Z M 81.88 -53.36 L 81.88 -1.26 Q 81.88 0 83.14 0 L 83.14 0 L 91.25 0 Q 91.83 0 92.17 -0.34 Q 92.51 -0.69 92.51 -1.26 L 92.51 -1.26 L 92.51 -53.36 Q 92.51 -53.93 92.17 -54.27 Q 91.83 -54.62 91.25 -54.62 L 91.25 -54.62 L 83.14 -54.62 Q 81.88 -54.62 81.88 -53.36 L 81.88 -53.36 Z M 100.13 0 Q 99.18 0 98.87 -0.51 Q 98.57 -1.03 98.99 -1.87 L 98.99 -1.87 L 118.87 -44.29 L 102.79 -44.29 Q 102.22 -44.29 101.88 -44.64 Q 101.54 -44.98 101.54 -45.55 L 101.54 -45.55 L 101.54 -53.28 Q 101.54 -54.5 102.79 -54.62 L 102.79 -54.62 L 132.35 -54.62 Q 133.3 -54.62 133.62 -54.08 Q 133.95 -53.55 133.53 -52.71 L 133.53 -52.71 L 113.65 -9.6 L 130.71 -9.6 Q 131.97 -9.6 131.97 -8.34 L 131.97 -8.34 L 131.97 -1.33 Q 131.97 -0.11 130.71 0 L 130.71 0 L 100.13 0 Z M 139.89 -1.56 L 139.89 -1.56 L 139.89 -53.05 Q 139.89 -54.62 141.45 -54.62 L 141.45 -54.62 L 151.77 -54.62 Q 153.14 -54.62 153.49 -53.28 L 153.49 -53.28 L 162.13 -18.47 L 170.78 -53.28 Q 171.12 -54.62 172.49 -54.62 L 172.49 -54.62 L 182.81 -54.62 Q 184.37 -54.62 184.37 -53.05 L 184.37 -53.05 L 184.37 -1.56 Q 184.37 0 182.81 0 L 182.81 0 L 175.54 0 Q 173.98 0 173.98 -1.56 L 173.98 -1.56 L 173.98 -32.22 L 173.44 -32.22 L 166.13 -1.33 Q 165.79 0 164.38 0 L 164.38 0 L 159.81 0 Q 158.44 0 158.09 -1.33 L 158.09 -1.33 L 150.74 -32.22 L 150.21 -32.22 L 150.21 -1.56 Q 150.21 0 148.65 0 L 148.65 0 L 141.45 0 Q 139.89 0 139.89 -1.56 Z M 192.14 -1.26 L 192.14 -1.26 L 192.14 -53.36 Q 192.14 -53.93 192.47 -54.27 Q 192.79 -54.62 193.32 -54.62 L 193.32 -54.62 L 222.04 -54.62 Q 223.3 -54.62 223.3 -53.36 L 223.3 -53.36 L 223.3 -45.55 Q 223.3 -44.22 222.04 -44.22 L 222.04 -44.22 L 202.77 -44.22 L 202.77 -32.22 L 217.43 -32.22 Q 218.69 -32.22 218.69 -30.89 L 218.69 -30.89 L 218.69 -23.16 Q 218.69 -21.82 217.43 -21.82 L 217.43 -21.82 L 202.77 -21.82 L 202.77 -10.28 L 222.04 -10.28 Q 222.76 -10.28 223.03 -10.02 Q 223.3 -9.75 223.3 -9.06 L 223.3 -9.06 L 223.3 -1.26 Q 223.3 0 222.04 0 L 222.04 0 L 193.32 0 Q 192.79 0 192.47 -0.34 Q 192.14 -0.69 192.14 -1.26 Z M 231.03 -53.36 L 231.03 -1.26 Q 231.03 0 232.29 0 L 232.29 0 L 240.4 0 Q 240.97 0 241.31 -0.34 Q 241.66 -0.69 241.66 -1.26 L 241.66 -1.26 L 241.66 -53.36 Q 241.66 -53.93 241.31 -54.27 Q 240.97 -54.62 240.4 -54.62 L 240.4 -54.62 L 232.29 -54.62 Q 231.03 -54.62 231.03 -53.36 L 231.03 -53.36 Z M 249.42 -11.24 L 249.42 -11.24 L 249.42 -16.3 Q 249.42 -17.56 250.68 -17.56 L 250.68 -17.56 L 258.57 -17.56 Q 259.82 -17.56 259.82 -16.3 L 259.82 -16.3 L 259.82 -13.03 Q 259.82 -9.9 262.95 -9.9 L 262.95 -9.9 L 267.13 -9.9 Q 270.26 -9.9 270.26 -13.03 L 270.26 -13.03 L 270.26 -20.91 L 251.56 -27 Q 249.42 -27.69 249.42 -29.86 L 249.42 -29.86 L 249.42 -43.38 Q 249.42 -48.86 252.32 -51.74 Q 255.21 -54.62 260.66 -54.62 L 260.66 -54.62 L 269.42 -54.62 Q 274.94 -54.62 277.8 -51.76 Q 280.66 -48.9 280.66 -43.38 L 280.66 -43.38 L 280.66 -38.24 Q 280.66 -36.98 279.4 -36.98 L 279.4 -36.98 L 271.51 -36.98 Q 270.94 -36.98 270.6 -37.32 Q 270.26 -37.67 270.26 -38.24 L 270.26 -38.24 L 270.26 -41.51 Q 270.26 -44.6 267.13 -44.6 L 267.13 -44.6 L 262.87 -44.6 Q 261.38 -44.6 260.56 -43.8 Q 259.75 -43 259.75 -41.51 L 259.75 -41.51 L 259.75 -34.85 L 278.6 -28.79 Q 280.66 -28.07 280.66 -25.9 L 280.66 -25.9 L 280.66 -11.24 Q 280.66 -5.71 277.8 -2.86 Q 274.94 0 269.42 0 L 269.42 0 L 260.66 0 Q 255.21 0 252.32 -2.88 Q 249.42 -5.75 249.42 -11.24 Z M 284.54 -53.36 L 284.54 -45.55 Q 284.54 -44.98 284.88 -44.64 Q 285.23 -44.29 285.8 -44.29 L 285.8 -44.29 L 294.86 -44.29 L 294.86 -1.26 Q 294.86 0 296.12 0 L 296.12 0 L 304.23 0 Q 305.45 0 305.45 -1.26 L 305.45 -1.26 L 305.45 -44.29 L 314.51 -44.29 Q 315.77 -44.29 315.77 -45.55 L 315.77 -45.55 L 315.77 -53.36 Q 315.77 -54.62 314.51 -54.62 L 314.51 -54.62 L 285.8 -54.62 Q 285.23 -54.62 284.88 -54.27 Q 284.54 -53.93 284.54 -53.36 L 284.54 -53.36 Z M 321.98 -1.26 L 321.98 -1.26 L 321.98 -53.36 Q 321.98 -53.93 322.3 -54.27 Q 322.63 -54.62 323.16 -54.62 L 323.16 -54.62 L 351.88 -54.62 Q 353.13 -54.62 353.13 -53.36 L 353.13 -53.36 L 353.13 -45.55 Q 353.13 -44.22 351.88 -44.22 L 351.88 -44.22 L 332.6 -44.22 L 332.6 -32.22 L 347.27 -32.22 Q 348.52 -32.22 348.52 -30.89 L 348.52 -30.89 L 348.52 -23.16 Q 348.52 -21.82 347.27 -21.82 L 347.27 -21.82 L 332.6 -21.82 L 332.6 -10.28 L 351.88 -10.28 Q 352.6 -10.28 352.87 -10.02 Q 353.13 -9.75 353.13 -9.06 L 353.13 -9.06 L 353.13 -1.26 Q 353.13 0 351.88 0 L 351.88 0 L 323.16 0 Q 322.63 0 322.3 -0.34 Q 321.98 -0.69 321.98 -1.26 Z M 360.1 -1.26 L 360.1 -1.26 L 360.1 -53.36 Q 360.1 -53.93 360.45 -54.27 Q 360.79 -54.62 361.36 -54.62 L 361.36 -54.62 L 380.1 -54.62 Q 385.62 -54.62 388.48 -51.76 Q 391.33 -48.9 391.33 -43.38 L 391.33 -43.38 L 391.33 -27.69 Q 391.33 -20.87 386.95 -18.17 L 386.95 -18.17 L 390.99 -1.41 Q 391.33 0 389.92 0 L 389.92 0 L 382.27 0 Q 381.16 0 380.94 -1.1 L 380.94 -1.1 L 377.2 -16.45 L 370.27 -16.45 L 370.27 -1.26 Q 370.27 -0.69 369.93 -0.34 Q 369.59 0 369.01 0 L 369.01 0 L 361.36 0 Q 360.79 0 360.45 -0.34 Q 360.1 -0.69 360.1 -1.26 Z M 370.27 -44.52 L 370.27 -26.51 L 378.04 -26.51 Q 381.16 -26.51 381.16 -29.63 L 381.16 -29.63 L 381.16 -41.4 Q 381.16 -44.52 378.04 -44.52 L 378.04 -44.52 L 370.27 -44.52 Z" stroke-linecap="round" />
</g>
</svg>