<?xml version="1.0" standalone="no"?>
<!DOCTYPE svg PUBLIC "-//W3C//DTD SVG 20010904//EN"
 "http://www.w3.org/TR/2001/REC-SVG-20010904/DTD/svg10.dtd">
<svg version="1.0" xmlns="http://www.w3.org/2000/svg"
 width="797.000000pt" height="797.000000pt" viewBox="0 0 797.000000 797.000000"
 preserveAspectRatio="xMidYMid meet">
<metadata>
Created by potrace 1.11, written by Peter Selinger 2001-2013
</metadata>
<g transform="translate(0.000000,797.000000) scale(0.100000,-0.100000)"
fill="#000000" stroke="none">
<path d="M3560 7629 c-140 -18 -155 -20 -170 -24 -8 -2 -31 -6 -50 -9 -107
-17 -350 -89 -485 -144 -22 -9 -107 -50 -190 -92 -160 -81 -307 -176 -445
-287 -92 -74 -284 -261 -340 -332 -19 -24 -40 -48 -46 -55 -19 -20 -120 -160
-156 -216 -226 -352 -358 -738 -395 -1150 -9 -101 -9 -356 0 -455 48 -525 249
-1008 587 -1410 104 -123 248 -266 350 -345 25 -19 50 -39 57 -45 7 -5 18 -15
25 -21 24 -19 243 -161 273 -176 17 -9 52 -27 78 -42 67 -36 236 -109 340
-145 142 -50 278 -83 471 -115 161 -27 504 -28 696 -1 88 12 127 19 230 42
324 72 678 232 929 422 41 31 82 62 91 69 15 11 51 -22 302 -273 l286 -285
373 2 374 3 -1273 1273 -1273 1273 -307 0 c-169 0 -338 0 -376 0 l-69 -1 422
-421 c231 -232 421 -424 421 -428 0 -4 -19 -15 -42 -25 -24 -10 -57 -24 -75
-32 -17 -8 -73 -25 -124 -38 -80 -21 -111 -24 -233 -21 -155 3 -180 6 -276 36
-412 128 -688 503 -688 935 0 393 245 753 612 898 38 15 77 30 87 32 11 2 29
6 42 9 82 20 135 26 227 27 58 0 114 -2 125 -5 11 -3 39 -9 63 -12 60 -8 182
-49 250 -84 230 -117 403 -317 485 -561 38 -113 48 -177 50 -315 l2 -90 212
-212 c117 -117 215 -213 218 -213 10 0 26 44 51 141 90 357 55 712 -102 1035
-94 193 -237 377 -391 500 -26 22 -50 42 -53 45 -18 20 -180 117 -255 154
-211 101 -421 149 -655 149 -627 -1 -1196 -398 -1408 -984 -43 -120 -65 -206
-77 -305 -4 -33 -9 -69 -11 -80 -6 -27 -5 -234 0 -265 2 -14 7 -50 10 -80 10
-85 42 -210 82 -317 150 -403 474 -726 881 -878 383 -144 797 -126 1170 50 51
24 116 59 146 79 30 20 59 36 64 36 16 0 364 -352 360 -364 -11 -33 -294 -199
-452 -264 -84 -35 -284 -96 -346 -106 -20 -3 -42 -7 -50 -10 -17 -6 -80 -15
-179 -25 -75 -8 -349 -6 -405 3 -348 53 -565 127 -813 273 -94 56 -142 90
-257 185 -410 337 -674 834 -722 1358 -12 131 -6 401 11 486 2 12 7 37 10 55
16 102 60 260 106 379 51 131 167 349 233 435 105 138 135 173 217 255 137
136 223 206 359 290 218 135 470 234 696 274 50 8 106 18 125 22 75 13 415 12
515 -2 677 -94 1253 -510 1550 -1119 97 -197 167 -431 192 -640 10 -77 10
-389 1 -480 -20 -194 -83 -413 -177 -617 l-31 -68 194 -195 195 -194 27 47
c122 208 220 465 278 725 28 129 35 169 51 332 5 51 6 348 1 400 -4 42 -16
150 -20 175 -109 763 -579 1454 -1252 1841 -253 146 -586 266 -839 303 -22 4
-53 9 -70 12 -16 3 -43 8 -60 10 -54 9 -499 12 -565 3z"/>
<path d="M352 1984 c-57 -12 -80 -25 -109 -56 -50 -54 -53 -76 -52 -556 l0
-447 23 -48 c41 -84 87 -108 214 -110 l77 -2 33 -67 33 -68 94 0 c52 0 96 4
99 9 3 5 -8 39 -24 76 l-30 68 34 35 c62 61 63 68 62 572 -2 501 -2 499 -64
552 -17 15 -47 31 -67 38 -45 15 -264 18 -323 4z m233 -208 c18 -13 19 -33 19
-395 0 -439 5 -413 -91 -413 -80 0 -80 0 -97 17 -13 13 -15 67 -15 388 0 440
-5 417 97 417 42 0 75 -5 87 -14z"/>
<path d="M966 1824 c-12 -32 -6 -903 7 -932 44 -103 93 -125 282 -127 161 -2
212 9 260 55 56 55 58 73 60 545 1 237 -2 440 -7 453 -7 20 -13 22 -91 22 -51
0 -88 -5 -95 -12 -9 -9 -12 -116 -12 -420 0 -472 6 -444 -97 -441 -74 2 -69 0
-87 19 -14 13 -16 66 -16 423 0 303 -3 410 -12 419 -7 7 -45 12 -99 12 -71 0
-88 -3 -93 -16z"/>
<path d="M1736 1831 c-8 -13 -9 -1051 -1 -1059 12 -12 185 -10 193 2 8 12 14
1006 6 1044 -4 21 -9 22 -99 22 -51 0 -96 -4 -99 -9z"/>
<path d="M2123 1828 c-10 -17 -12 -164 -2 -180 6 -9 54 -12 168 -12 89 -1 161
-4 161 -7 0 -6 -21 -52 -140 -304 -15 -33 -60 -127 -98 -210 -38 -82 -88 -189
-111 -238 -42 -89 -47 -106 -33 -108 27 -6 624 -4 633 2 13 7 19 153 8 171 -5
7 -65 11 -178 12 -94 0 -171 3 -171 7 0 6 30 72 121 267 21 46 39 85 39 87 0
1 23 52 51 111 125 266 179 389 175 401 -8 19 -611 19 -623 1z"/>
<path d="M2877 1833 c-4 -3 -7 -241 -7 -528 0 -406 3 -525 13 -533 14 -11 172
-10 183 1 5 4 8 147 8 318 0 170 3 306 7 302 4 -4 14 -39 23 -78 59 -262 126
-528 135 -539 15 -18 129 -15 141 4 7 11 64 240 74 294 5 28 59 256 70 291 9
33 11 -17 14 -269 1 -181 6 -314 12 -321 11 -13 173 -15 187 -2 4 5 8 242 9
528 0 395 -3 522 -12 530 -7 5 -61 8 -130 7 l-119 -3 -86 -343 c-47 -188 -88
-344 -90 -347 -3 -2 -42 149 -88 335 -46 186 -89 344 -94 349 -12 12 -239 15
-250 4z"/>
<path d="M3905 1828 c-3 -7 -4 -249 -3 -538 l3 -525 292 -1 c161 0 298 3 304
7 13 8 16 175 4 187 -4 4 -86 8 -183 8 -98 1 -185 2 -194 3 -16 1 -18 13 -18
111 0 81 3 110 13 111 6 1 75 2 152 3 l140 1 5 65 c3 36 3 81 0 100 l-5 35
-153 3 -153 3 3 117 3 117 192 0 c105 0 195 3 199 7 9 9 9 172 0 187 -11 17
-595 15 -601 -1z"/>
<path d="M4668 1828 c-8 -24 -3 -1047 5 -1054 5 -5 49 -9 98 -10 79 -1 92 1
97 17 6 14 8 936 3 1037 -1 21 -4 22 -100 22 -70 0 -100 -4 -103 -12z"/>
<path d="M5157 1825 c-51 -18 -85 -50 -109 -104 -17 -37 -20 -66 -20 -217 0
-124 3 -178 12 -189 7 -8 99 -43 205 -77 l193 -62 -1 -91 c-2 -119 -7 -125
-102 -125 -87 0 -98 9 -105 89 l-5 56 -89 3 c-49 2 -94 -2 -99 -7 -5 -5 -9
-49 -9 -96 3 -193 69 -243 314 -240 155 2 207 15 248 62 41 47 52 99 52 253 0
206 -1 217 -17 234 -9 8 -101 42 -205 76 l-190 61 0 78 c0 106 15 118 145 112
47 -2 56 -13 60 -76 2 -32 9 -61 15 -65 20 -12 178 -11 186 2 8 13 7 150 -1
182 -24 84 -67 129 -142 147 -61 14 -292 10 -336 -6z"/>
<path d="M5725 1829 c-9 -13 -9 -178 0 -187 3 -3 46 -6 95 -7 48 0 91 -3 95
-7 4 -4 7 -196 7 -428 0 -381 2 -421 16 -429 13 -7 148 -8 185 -2 4 0 7 196 7
434 l0 433 95 0 c52 0 97 3 101 7 10 10 11 159 2 180 -8 16 -33 17 -303 17
-195 0 -296 -4 -300 -11z"/>
<path d="M6462 1823 c-10 -21 -10 -1033 0 -1049 5 -7 101 -10 295 -9 158 1
294 3 301 3 9 2 12 28 12 97 0 68 -3 95 -12 97 -7 0 -94 2 -193 4 -99 1 -185
2 -190 3 -15 2 -13 210 2 219 6 4 72 7 145 6 73 0 139 3 146 9 13 10 18 151 6
181 -5 14 -29 16 -158 16 l-152 0 1 108 c0 59 3 112 7 118 4 7 71 10 193 9
102 -1 190 2 196 5 6 4 9 44 7 101 l-3 94 -297 3 c-276 2 -298 1 -306 -15z"/>
<path d="M7213 1823 c-11 -22 -9 -1040 1 -1050 4 -5 46 -8 92 -9 71 0 87 2 95
17 5 10 8 81 6 158 -1 87 2 142 8 144 6 2 37 4 69 3 l60 -1 36 -145 c20 -80
39 -152 42 -161 5 -12 23 -15 94 -13 49 0 92 2 96 3 9 1 5 18 -37 189 -19 78
-35 148 -35 156 0 8 9 21 20 29 11 7 29 35 40 60 19 43 21 66 21 250 0 216 -3
242 -28 291 -19 37 -35 51 -88 76 -34 16 -66 19 -262 20 -204 1 -223 -1 -230
-17z m391 -199 c13 -13 16 -42 16 -158 0 -100 -4 -147 -13 -160 -10 -14 -31
-18 -105 -20 l-92 -2 -1 40 c-1 40 -1 279 0 304 1 20 175 17 195 -4z"/>
</g>
</svg>
